<?xml version="1.0" encoding="utf-8"?>
<!-- Generator: Adobe Illustrator 23.1.1, SVG Export Plug-In . SVG Version: 6.00 Build 0)  -->
<svg version="1.2" baseProfile="tiny" id="Layer_1" xmlns="http://www.w3.org/2000/svg" xmlns:xlink="http://www.w3.org/1999/xlink"
	 x="0px" y="0px" width="270.59px" height="40.52px" viewBox="0 0 270.59 40.52" xml:space="preserve">
<g>
	<path fill="#FFFFFF" d="M27,39.74h-7.51v-4.01h-0.17c-2,3.23-5.46,4.79-8.79,4.79C2.12,40.52,0,35.79,0,28.67v-17.7h7.91v16.26
		c0,4.73,1.39,7.07,5.07,7.07c4.29,0,6.12-2.39,6.12-8.24V10.96H27V39.74z"/>
	<path fill="#FFFFFF" d="M50.49,25.66c-1.34,1.17-4.12,1.23-6.57,1.67c-2.45,0.5-4.68,1.34-4.68,4.23c0,2.95,2.28,3.67,4.84,3.67
		c6.18,0,6.4-4.9,6.4-6.62V25.66z M32.23,19.82c0.45-7.4,7.07-9.63,13.53-9.63c5.73,0,12.64,1.28,12.64,8.18v14.97
		c0,2.62,0.28,5.23,1,6.4h-8.02c-0.28-0.89-0.5-1.84-0.56-2.78c-2.5,2.62-6.18,3.56-9.69,3.56c-5.46,0-9.8-2.73-9.8-8.63
		c0-6.51,4.9-8.07,9.8-8.74c4.84-0.72,9.35-0.56,9.35-3.79c0-3.4-2.34-3.9-5.12-3.9c-3.01,0-4.95,1.22-5.23,4.34H32.23z"/>
	<rect x="64.46" fill="#FFFFFF" width="7.9" height="39.74"/>
	<path fill="#FFFFFF" d="M81.1,31.17h8.74v8.57H81.1V31.17z M89.84,20.04H81.1v-8.57h8.74V20.04z"/>
	<path fill="#FFFFFF" d="M267.98,10.82v1.33h-0.04c-0.34-0.58-0.75-0.99-1.25-1.24c-0.5-0.24-1.07-0.37-1.73-0.37
		c-0.7,0-1.31,0.14-1.85,0.41c-0.54,0.27-0.98,0.64-1.34,1.09c-0.36,0.46-0.64,0.99-0.82,1.59c-0.19,0.6-0.28,1.22-0.28,1.87
		c0,0.68,0.08,1.33,0.24,1.94c0.16,0.61,0.42,1.15,0.76,1.61c0.35,0.46,0.79,0.82,1.34,1.08c0.54,0.26,1.19,0.4,1.93,0.4
		c0.61,0,1.18-0.13,1.73-0.38c0.55-0.25,0.97-0.64,1.27-1.17h0.04v1.32c0.01,0.71-0.16,1.3-0.51,1.76c-0.35,0.46-0.92,0.7-1.69,0.7
		c-0.49,0-0.92-0.1-1.3-0.3c-0.37-0.2-0.63-0.56-0.75-1.07h-2.73c0.04,0.57,0.2,1.05,0.47,1.46c0.28,0.41,0.63,0.74,1.05,1
		c0.42,0.26,0.88,0.45,1.39,0.57c0.51,0.12,1.01,0.18,1.5,0.18c1.15,0,2.06-0.15,2.75-0.46c0.68-0.31,1.21-0.69,1.57-1.13
		c0.36-0.45,0.6-0.93,0.71-1.44c0.11-0.52,0.16-0.97,0.16-1.37v-9.36H267.98z M267.83,16.73c-0.1,0.33-0.24,0.62-0.44,0.88
		c-0.19,0.26-0.44,0.46-0.73,0.62c-0.3,0.15-0.64,0.23-1.03,0.23c-0.43,0-0.78-0.09-1.06-0.27c-0.28-0.18-0.51-0.41-0.69-0.7
		c-0.17-0.28-0.3-0.6-0.37-0.96c-0.07-0.35-0.11-0.71-0.11-1.07c0-0.37,0.04-0.73,0.13-1.07c0.08-0.34,0.22-0.64,0.41-0.91
		c0.19-0.26,0.42-0.47,0.7-0.63c0.28-0.16,0.61-0.23,1-0.23c0.45,0,0.83,0.08,1.12,0.25c0.3,0.17,0.54,0.39,0.72,0.68
		c0.18,0.28,0.31,0.61,0.39,0.98c0.08,0.37,0.12,0.76,0.12,1.17C267.98,16.06,267.93,16.4,267.83,16.73z"/>
	<path fill="#FFFFFF" d="M252.6,10.82v1.39h0.06c0.35-0.58,0.8-1,1.35-1.27c0.55-0.26,1.12-0.4,1.7-0.4c0.74,0,1.34,0.1,1.81,0.3
		c0.47,0.2,0.84,0.48,1.11,0.83c0.27,0.35,0.46,0.79,0.57,1.3c0.11,0.51,0.16,1.07,0.16,1.69v6.15h-2.75v-5.65
		c0-0.83-0.13-1.44-0.39-1.85c-0.26-0.41-0.72-0.61-1.37-0.61c-0.75,0-1.29,0.22-1.63,0.67c-0.34,0.45-0.5,1.18-0.5,2.2v5.24h-2.75
		v-10H252.6z"/>
	<rect x="245.51" y="10.82" fill="#FFFFFF" width="2.75" height="10"/>
	<rect x="245.51" y="7.01" fill="#FFFFFF" width="2.75" height="2.26"/>
	<path fill="#FFFFFF" d="M244.44,10.82v1.84h-2.01v4.95c0,0.46,0.08,0.77,0.23,0.93c0.15,0.15,0.46,0.23,0.93,0.23
		c0.16,0,0.3-0.01,0.45-0.02c0.14-0.01,0.28-0.03,0.41-0.06v2.13c-0.23,0.04-0.49,0.06-0.77,0.08c-0.28,0.01-0.56,0.02-0.83,0.02
		c-0.43,0-0.83-0.03-1.21-0.09c-0.38-0.06-0.72-0.17-1.01-0.34s-0.52-0.41-0.69-0.72c-0.17-0.31-0.25-0.72-0.25-1.22v-5.9h-1.66
		v-1.84h1.66v-3h2.75v3H244.44z"/>
	<path fill="#FFFFFF" d="M234.64,20.82v-1.39h-0.06c-0.35,0.58-0.8,1-1.35,1.26c-0.55,0.26-1.12,0.39-1.7,0.39
		c-0.73,0-1.34-0.1-1.81-0.29c-0.47-0.19-0.84-0.47-1.11-0.82c-0.27-0.35-0.46-0.79-0.57-1.3c-0.11-0.51-0.16-1.07-0.16-1.69v-6.15
		h2.75v5.65c0,0.83,0.13,1.44,0.39,1.85c0.26,0.41,0.72,0.61,1.37,0.61c0.75,0,1.29-0.22,1.63-0.67c0.34-0.45,0.5-1.18,0.5-2.2
		v-5.24h2.75v10H234.64z"/>
	<path fill="#FFFFFF" d="M226.4,13.89c-0.18-0.65-0.46-1.22-0.83-1.71c-0.37-0.49-0.84-0.88-1.41-1.18
		c-0.57-0.3-1.25-0.45-2.03-0.45c-0.62,0-1.19,0.12-1.7,0.37c-0.52,0.24-0.94,0.64-1.28,1.18h-0.04v-1.28h-2.61v13.5h2.75v-4.74
		h0.04c0.34,0.49,0.76,0.86,1.29,1.11c0.52,0.25,1.09,0.38,1.71,0.38c0.74,0,1.38-0.14,1.92-0.43c0.55-0.28,1.01-0.66,1.37-1.14
		s0.64-1.03,0.82-1.64c0.18-0.62,0.27-1.26,0.27-1.93C226.67,15.22,226.58,14.54,226.4,13.89z M223.81,17.03
		c-0.08,0.39-0.21,0.73-0.4,1.02c-0.19,0.29-0.43,0.53-0.74,0.71c-0.3,0.18-0.68,0.27-1.13,0.27c-0.44,0-0.81-0.09-1.12-0.27
		c-0.31-0.18-0.56-0.42-0.74-0.71c-0.19-0.29-0.32-0.63-0.41-1.02c-0.08-0.39-0.13-0.78-0.13-1.18c0-0.41,0.04-0.81,0.12-1.2
		c0.08-0.39,0.21-0.73,0.4-1.03c0.19-0.3,0.43-0.54,0.74-0.73c0.3-0.19,0.68-0.28,1.13-0.28c0.44,0,0.81,0.09,1.11,0.28
		c0.3,0.19,0.55,0.43,0.75,0.74c0.19,0.3,0.33,0.65,0.42,1.03c0.08,0.39,0.13,0.78,0.13,1.18S223.88,16.64,223.81,17.03z"/>
	<path fill="#FFFFFF" d="M202.07,10.82v1.35h0.04c0.36-0.52,0.8-0.92,1.31-1.2c0.51-0.28,1.09-0.43,1.75-0.43
		c0.63,0,1.21,0.12,1.73,0.37c0.52,0.24,0.92,0.68,1.19,1.3c0.3-0.44,0.7-0.83,1.21-1.16c0.51-0.34,1.11-0.5,1.81-0.5
		c0.53,0,1.02,0.06,1.47,0.19c0.45,0.13,0.84,0.34,1.16,0.62c0.32,0.28,0.57,0.65,0.75,1.11c0.18,0.46,0.27,1.01,0.27,1.65v6.69
		h-2.75v-5.67c0-0.34-0.01-0.65-0.04-0.95c-0.03-0.3-0.1-0.55-0.21-0.77c-0.12-0.22-0.29-0.39-0.51-0.52
		c-0.23-0.13-0.53-0.19-0.92-0.19s-0.7,0.07-0.94,0.22c-0.24,0.15-0.43,0.34-0.56,0.58c-0.14,0.24-0.23,0.51-0.27,0.81
		c-0.05,0.3-0.07,0.61-0.07,0.92v5.57h-2.75v-5.61c0-0.3-0.01-0.59-0.02-0.88c-0.01-0.29-0.07-0.56-0.16-0.8
		c-0.1-0.24-0.26-0.44-0.48-0.59c-0.23-0.15-0.56-0.22-1-0.22c-0.13,0-0.3,0.03-0.51,0.09c-0.21,0.06-0.42,0.17-0.62,0.33
		c-0.2,0.16-0.37,0.39-0.51,0.7c-0.14,0.3-0.21,0.7-0.21,1.19v5.8h-2.75v-10H202.07z"/>
	<path fill="#FFFFFF" d="M197.79,13.66c-0.24-0.65-0.59-1.21-1.04-1.66c-0.45-0.46-1-0.81-1.63-1.06c-0.64-0.25-1.35-0.38-2.14-0.38
		c-0.79,0-1.5,0.13-2.13,0.38c-0.63,0.25-1.17,0.61-1.63,1.06c-0.45,0.46-0.8,1.01-1.04,1.66c-0.25,0.65-0.37,1.38-0.37,2.18
		s0.12,1.52,0.37,2.17c0.24,0.65,0.59,1.2,1.04,1.65c0.45,0.46,0.99,0.81,1.63,1.05c0.63,0.24,1.34,0.37,2.13,0.37
		c0.79,0,1.5-0.12,2.14-0.37c0.64-0.24,1.18-0.6,1.63-1.05c0.45-0.46,0.8-1.01,1.04-1.65c0.24-0.64,0.37-1.37,0.37-2.17
		S198.03,14.31,197.79,13.66z M195.29,17c-0.08,0.38-0.21,0.72-0.4,1.03c-0.19,0.3-0.44,0.55-0.75,0.73s-0.71,0.27-1.17,0.27
		c-0.46,0-0.85-0.09-1.16-0.27c-0.31-0.18-0.56-0.42-0.74-0.73c-0.19-0.3-0.32-0.64-0.4-1.03c-0.08-0.38-0.12-0.77-0.12-1.17
		s0.04-0.79,0.12-1.18c0.08-0.39,0.21-0.73,0.4-1.03c0.19-0.3,0.44-0.54,0.74-0.73c0.31-0.19,0.7-0.28,1.16-0.28
		c0.46,0,0.85,0.09,1.17,0.28c0.32,0.19,0.57,0.43,0.75,0.73c0.19,0.3,0.32,0.64,0.4,1.03c0.08,0.39,0.12,0.78,0.12,1.18
		S195.37,16.62,195.29,17z"/>
	<path fill="#FFFFFF" d="M182.25,12.62c-0.44,0-0.81,0.1-1.1,0.3c-0.3,0.2-0.54,0.46-0.73,0.77c-0.19,0.32-0.32,0.66-0.4,1.04
		c-0.08,0.38-0.12,0.76-0.12,1.13c0,0.36,0.04,0.73,0.12,1.1c0.08,0.37,0.2,0.71,0.38,1.02c0.17,0.3,0.41,0.55,0.71,0.74
		c0.3,0.19,0.66,0.29,1.08,0.29c0.66,0,1.16-0.18,1.52-0.55c0.35-0.37,0.58-0.86,0.67-1.48h2.65c-0.18,1.33-0.7,2.34-1.55,3.04
		c-0.85,0.7-1.94,1.05-3.27,1.05c-0.75,0-1.44-0.13-2.06-0.38c-0.63-0.25-1.16-0.6-1.6-1.05c-0.44-0.45-0.78-0.99-1.03-1.62
		c-0.25-0.63-0.37-1.31-0.37-2.06c0-0.77,0.11-1.49,0.34-2.16c0.23-0.66,0.56-1.24,1-1.72c0.44-0.48,0.97-0.86,1.61-1.13
		c0.63-0.27,1.35-0.41,2.17-0.41c0.59,0,1.16,0.08,1.71,0.23c0.55,0.15,1.04,0.39,1.47,0.71c0.43,0.32,0.78,0.71,1.05,1.18
		c0.27,0.47,0.43,1.03,0.46,1.67h-2.69C184.1,13.19,183.42,12.62,182.25,12.62"/>
	<path fill="#FFFFFF" d="M171.05,14.27c-0.18-0.71-0.47-1.34-0.88-1.9c-0.41-0.55-0.93-1-1.56-1.33c-0.63-0.33-1.37-0.49-2.22-0.49
		c-0.76,0-1.45,0.14-2.08,0.41c-0.63,0.27-1.16,0.64-1.62,1.11c-0.45,0.47-0.8,1.03-1.04,1.67c-0.25,0.65-0.37,1.34-0.37,2.09
		c0,0.77,0.12,1.48,0.36,2.13c0.24,0.65,0.58,1.2,1.02,1.66c0.44,0.46,0.97,0.82,1.61,1.07c0.63,0.25,1.34,0.38,2.13,0.38
		c1.13,0,2.1-0.26,2.9-0.77c0.8-0.52,1.39-1.37,1.78-2.57h-2.42c-0.09,0.31-0.34,0.6-0.73,0.88c-0.4,0.28-0.88,0.42-1.43,0.42
		c-0.77,0-1.37-0.2-1.78-0.6c-0.41-0.4-0.64-1.04-0.68-1.93h7.22C171.29,15.72,171.23,14.97,171.05,14.27z M164.03,14.75
		c0.01-0.19,0.05-0.41,0.13-0.66c0.07-0.24,0.19-0.48,0.37-0.7c0.17-0.22,0.41-0.4,0.7-0.55c0.29-0.15,0.65-0.22,1.09-0.22
		c0.67,0,1.17,0.18,1.5,0.54c0.33,0.36,0.56,0.89,0.69,1.59H164.03z"/>
	<polygon fill="#FFFFFF" points="154.95,20.82 151.52,10.82 154.4,10.82 156.51,17.65 156.55,17.65 158.66,10.82 161.39,10.82 
		158,20.82 	"/>
	<rect x="147.99" y="10.82" fill="#FFFFFF" width="2.75" height="10"/>
	<rect x="147.99" y="7.01" fill="#FFFFFF" width="2.75" height="2.26"/>
	<path fill="#FFFFFF" d="M146.92,10.82v1.84h-2.01v4.95c0,0.46,0.08,0.77,0.23,0.93c0.15,0.15,0.46,0.23,0.93,0.23
		c0.16,0,0.3-0.01,0.45-0.02c0.14-0.01,0.28-0.03,0.41-0.06v2.13c-0.23,0.04-0.49,0.06-0.77,0.08c-0.28,0.01-0.56,0.02-0.83,0.02
		c-0.43,0-0.83-0.03-1.21-0.09c-0.38-0.06-0.72-0.17-1.01-0.34c-0.29-0.17-0.52-0.41-0.69-0.72c-0.17-0.31-0.25-0.72-0.25-1.22v-5.9
		h-1.66v-1.84h1.66v-3h2.75v3H146.92z"/>
	<path fill="#FFFFFF" d="M139.81,19.9c-0.05-0.41-0.08-0.84-0.08-1.3v-5.2c0-0.61-0.14-1.09-0.41-1.46
		c-0.27-0.37-0.62-0.65-1.04-0.86c-0.43-0.21-0.9-0.34-1.41-0.42c-0.52-0.07-1.03-0.11-1.53-0.11c-0.55,0-1.11,0.06-1.65,0.16
		c-0.55,0.11-1.04,0.29-1.48,0.55c-0.44,0.26-0.8,0.6-1.08,1.03c-0.28,0.43-0.45,0.96-0.48,1.61h2.75c0.05-0.54,0.23-0.93,0.54-1.16
		c0.31-0.23,0.74-0.35,1.28-0.35c0.24,0,0.47,0.02,0.69,0.05c0.21,0.03,0.4,0.1,0.56,0.19c0.16,0.1,0.29,0.23,0.39,0.41
		c0.1,0.17,0.14,0.41,0.14,0.71c0.01,0.28-0.07,0.5-0.25,0.65c-0.18,0.15-0.43,0.26-0.74,0.34c-0.31,0.08-0.66,0.14-1.06,0.17
		c-0.4,0.04-0.81,0.09-1.22,0.16c-0.41,0.06-0.82,0.15-1.23,0.26c-0.41,0.11-0.77,0.27-1.08,0.49c-0.32,0.22-0.57,0.51-0.77,0.88
		c-0.2,0.37-0.3,0.83-0.3,1.4c0,0.52,0.09,0.96,0.26,1.34c0.17,0.37,0.42,0.68,0.73,0.93c0.31,0.25,0.67,0.43,1.08,0.54
		c0.41,0.12,0.86,0.17,1.33,0.17c0.62,0,1.23-0.09,1.82-0.27c0.59-0.18,1.11-0.5,1.55-0.95c0.01,0.17,0.04,0.33,0.07,0.49
		c0.03,0.16,0.07,0.32,0.13,0.47h2.79C139.95,20.62,139.86,20.31,139.81,19.9z M136.98,16.95c0,0.16-0.02,0.36-0.05,0.62
		c-0.03,0.26-0.12,0.51-0.26,0.76c-0.14,0.25-0.36,0.47-0.66,0.65c-0.3,0.18-0.72,0.27-1.26,0.27c-0.22,0-0.43-0.02-0.64-0.06
		c-0.21-0.04-0.39-0.11-0.54-0.2c-0.15-0.1-0.28-0.23-0.37-0.4c-0.09-0.17-0.14-0.37-0.14-0.62c0-0.26,0.04-0.47,0.14-0.64
		c0.09-0.17,0.21-0.31,0.36-0.42c0.15-0.11,0.32-0.2,0.52-0.26c0.2-0.06,0.4-0.12,0.61-0.15c0.22-0.04,0.44-0.07,0.66-0.1
		c0.22-0.03,0.43-0.06,0.63-0.1c0.2-0.04,0.39-0.09,0.56-0.15c0.17-0.06,0.32-0.14,0.44-0.24V16.95z"/>
	<path fill="#FFFFFF" d="M129.45,14.27c-0.18-0.71-0.47-1.34-0.88-1.9c-0.41-0.55-0.93-1-1.56-1.33c-0.63-0.33-1.37-0.49-2.22-0.49
		c-0.76,0-1.45,0.14-2.08,0.41c-0.63,0.27-1.16,0.64-1.62,1.11c-0.45,0.47-0.8,1.03-1.04,1.67c-0.25,0.65-0.37,1.34-0.37,2.09
		c0,0.77,0.12,1.48,0.36,2.13c0.24,0.65,0.58,1.2,1.02,1.66c0.44,0.46,0.97,0.82,1.61,1.07c0.63,0.25,1.34,0.38,2.13,0.38
		c1.13,0,2.1-0.26,2.9-0.77c0.8-0.52,1.39-1.37,1.78-2.57h-2.42c-0.09,0.31-0.34,0.6-0.73,0.88c-0.4,0.28-0.88,0.42-1.43,0.42
		c-0.77,0-1.37-0.2-1.78-0.6c-0.41-0.4-0.64-1.04-0.68-1.93h7.22C129.69,15.72,129.63,14.97,129.45,14.27z M122.42,14.75
		c0.01-0.19,0.05-0.41,0.13-0.66c0.07-0.24,0.19-0.48,0.37-0.7c0.17-0.22,0.41-0.4,0.7-0.55c0.29-0.15,0.65-0.22,1.09-0.22
		c0.67,0,1.17,0.18,1.5,0.54c0.33,0.36,0.56,0.89,0.69,1.59H122.42z"/>
	<path fill="#FFFFFF" d="M115.59,10.82v1.86h0.04c0.13-0.31,0.3-0.6,0.52-0.86c0.22-0.26,0.47-0.49,0.75-0.68
		c0.28-0.19,0.59-0.33,0.91-0.44c0.32-0.1,0.66-0.16,1.01-0.16c0.18,0,0.38,0.03,0.6,0.1v2.55c-0.13-0.03-0.28-0.05-0.46-0.07
		c-0.18-0.02-0.35-0.03-0.52-0.03c-0.5,0-0.93,0.08-1.28,0.25c-0.35,0.17-0.63,0.4-0.84,0.69c-0.21,0.29-0.36,0.63-0.45,1.02
		c-0.09,0.39-0.14,0.81-0.14,1.26v4.51h-2.75v-10H115.59z"/>
	<path fill="#FFFFFF" d="M107.04,12.62c-0.44,0-0.81,0.1-1.1,0.3c-0.3,0.2-0.54,0.46-0.73,0.77c-0.19,0.32-0.32,0.66-0.4,1.04
		c-0.08,0.38-0.12,0.76-0.12,1.13c0,0.36,0.04,0.73,0.12,1.1c0.08,0.37,0.2,0.71,0.38,1.02c0.17,0.3,0.41,0.55,0.71,0.74
		c0.3,0.19,0.66,0.29,1.08,0.29c0.66,0,1.16-0.18,1.52-0.55c0.35-0.37,0.58-0.86,0.67-1.48h2.65c-0.18,1.33-0.7,2.34-1.55,3.04
		c-0.85,0.7-1.94,1.05-3.27,1.05c-0.75,0-1.43-0.13-2.06-0.38c-0.63-0.25-1.16-0.6-1.6-1.05c-0.44-0.45-0.78-0.99-1.03-1.62
		c-0.25-0.63-0.37-1.31-0.37-2.06c0-0.77,0.11-1.49,0.34-2.16c0.23-0.66,0.56-1.24,1-1.72c0.44-0.48,0.97-0.86,1.61-1.13
		c0.63-0.27,1.35-0.41,2.17-0.41c0.59,0,1.16,0.08,1.71,0.23c0.55,0.15,1.04,0.39,1.47,0.71c0.43,0.32,0.78,0.71,1.05,1.18
		c0.27,0.47,0.43,1.03,0.46,1.67h-2.69C108.89,13.19,108.22,12.62,107.04,12.62"/>
	<path fill="#FFFFFF" d="M171.99,33.6c-0.18-0.71-0.47-1.34-0.88-1.9c-0.41-0.55-0.93-1-1.56-1.33c-0.63-0.33-1.37-0.49-2.22-0.49
		c-0.76,0-1.45,0.14-2.08,0.41c-0.63,0.27-1.16,0.64-1.62,1.11c-0.45,0.47-0.8,1.03-1.04,1.67c-0.25,0.65-0.37,1.34-0.37,2.09
		c0,0.77,0.12,1.48,0.36,2.13c0.24,0.64,0.58,1.2,1.02,1.66c0.44,0.46,0.97,0.82,1.61,1.07c0.63,0.25,1.34,0.38,2.13,0.38
		c1.13,0,2.1-0.26,2.9-0.77c0.8-0.52,1.39-1.37,1.78-2.57h-2.42c-0.09,0.31-0.34,0.6-0.73,0.88c-0.4,0.28-0.88,0.42-1.43,0.42
		c-0.77,0-1.37-0.2-1.78-0.6c-0.41-0.4-0.64-1.04-0.68-1.93h7.22C172.24,35.05,172.17,34.31,171.99,33.6z M164.97,34.08
		c0.01-0.19,0.05-0.41,0.13-0.66c0.07-0.24,0.19-0.48,0.37-0.7c0.17-0.22,0.41-0.4,0.7-0.55c0.29-0.15,0.65-0.22,1.09-0.22
		c0.67,0,1.17,0.18,1.5,0.54c0.33,0.36,0.56,0.89,0.69,1.59H164.97z"/>
	<path fill="#FFFFFF" d="M161.91,30.15v1.84h-2.01v4.95c0,0.46,0.08,0.77,0.23,0.93c0.16,0.15,0.46,0.23,0.93,0.23
		c0.15,0,0.3-0.01,0.44-0.02c0.14-0.01,0.28-0.03,0.41-0.06v2.13c-0.23,0.04-0.49,0.06-0.77,0.08c-0.28,0.01-0.56,0.02-0.83,0.02
		c-0.43,0-0.83-0.03-1.21-0.09c-0.38-0.06-0.72-0.17-1.01-0.34c-0.29-0.17-0.52-0.41-0.69-0.72c-0.17-0.31-0.25-0.72-0.25-1.22v-5.9
		h-1.66v-1.84h1.66v-3h2.75v3H161.91z"/>
	<path fill="#FFFFFF" d="M152.11,40.16v-1.39h-0.06c-0.35,0.58-0.8,1-1.35,1.26c-0.55,0.26-1.12,0.39-1.7,0.39
		c-0.74,0-1.34-0.1-1.81-0.29c-0.47-0.19-0.84-0.47-1.11-0.82c-0.27-0.35-0.46-0.79-0.57-1.3c-0.11-0.51-0.16-1.07-0.16-1.69v-6.15
		h2.75v5.65c0,0.83,0.13,1.44,0.39,1.85c0.26,0.41,0.72,0.61,1.37,0.61c0.75,0,1.29-0.22,1.63-0.67c0.34-0.44,0.5-1.18,0.5-2.2
		v-5.24h2.75v10H152.11z"/>
	<path fill="#FFFFFF" d="M144.49,30.15v1.84h-2.01v4.95c0,0.46,0.08,0.77,0.23,0.93c0.15,0.15,0.46,0.23,0.93,0.23
		c0.16,0,0.3-0.01,0.45-0.02c0.14-0.01,0.28-0.03,0.41-0.06v2.13c-0.23,0.04-0.49,0.06-0.77,0.08c-0.28,0.01-0.56,0.02-0.83,0.02
		c-0.43,0-0.83-0.03-1.21-0.09c-0.38-0.06-0.72-0.17-1.01-0.34c-0.29-0.17-0.52-0.41-0.69-0.72c-0.17-0.31-0.25-0.72-0.25-1.22v-5.9
		h-1.66v-1.84h1.66v-3h2.75v3H144.49z"/>
	<rect x="134.53" y="30.15" fill="#FFFFFF" width="2.75" height="10"/>
	<rect x="134.53" y="26.34" fill="#FFFFFF" width="2.75" height="2.26"/>
	<path fill="#FFFFFF" d="M133.46,30.15v1.84h-2.01v4.95c0,0.46,0.08,0.77,0.23,0.93c0.15,0.15,0.46,0.23,0.93,0.23
		c0.15,0,0.3-0.01,0.44-0.02c0.14-0.01,0.28-0.03,0.41-0.06v2.13c-0.23,0.04-0.49,0.06-0.77,0.08c-0.28,0.01-0.56,0.02-0.83,0.02
		c-0.43,0-0.83-0.03-1.21-0.09c-0.38-0.06-0.72-0.17-1.01-0.34c-0.29-0.17-0.52-0.41-0.69-0.72c-0.17-0.31-0.25-0.72-0.25-1.22v-5.9
		h-1.66v-1.84h1.66v-3h2.75v3H133.46z"/>
	<path fill="#FFFFFF" d="M120.26,37.67c0.12,0.21,0.28,0.39,0.47,0.52c0.19,0.14,0.42,0.24,0.67,0.3c0.25,0.06,0.51,0.1,0.78,0.1
		c0.19,0,0.4-0.02,0.61-0.07c0.21-0.04,0.41-0.12,0.58-0.21c0.17-0.1,0.32-0.23,0.44-0.39c0.12-0.16,0.17-0.36,0.17-0.61
		c0-0.41-0.27-0.72-0.82-0.93c-0.55-0.21-1.31-0.41-2.29-0.62c-0.4-0.09-0.79-0.2-1.17-0.32c-0.38-0.12-0.72-0.28-1.02-0.48
		s-0.54-0.45-0.72-0.75c-0.18-0.3-0.27-0.67-0.27-1.11c0-0.64,0.13-1.17,0.38-1.59c0.25-0.41,0.58-0.74,1-0.98
		c0.41-0.24,0.88-0.41,1.39-0.5c0.52-0.1,1.04-0.15,1.59-0.15c0.54,0,1.07,0.05,1.58,0.16c0.51,0.1,0.96,0.28,1.36,0.52
		c0.4,0.25,0.73,0.57,1,0.98c0.26,0.41,0.42,0.92,0.47,1.54h-2.61c-0.04-0.53-0.24-0.89-0.6-1.07c-0.36-0.19-0.79-0.28-1.28-0.28
		c-0.15,0-0.32,0.01-0.5,0.03c-0.18,0.02-0.35,0.06-0.49,0.13c-0.15,0.06-0.27,0.16-0.38,0.28c-0.1,0.12-0.15,0.29-0.15,0.49
		c0,0.24,0.09,0.44,0.27,0.6c0.18,0.16,0.42,0.28,0.71,0.38s0.62,0.18,1,0.26c0.37,0.08,0.75,0.16,1.14,0.25
		c0.4,0.09,0.79,0.2,1.17,0.33c0.38,0.13,0.72,0.3,1.02,0.51c0.3,0.21,0.54,0.48,0.72,0.79c0.18,0.32,0.27,0.71,0.27,1.17
		c0,0.66-0.13,1.21-0.4,1.65c-0.26,0.44-0.61,0.8-1.03,1.07c-0.43,0.27-0.91,0.46-1.46,0.57c-0.55,0.11-1.11,0.16-1.67,0.16
		c-0.58,0-1.15-0.06-1.7-0.17c-0.55-0.12-1.05-0.31-1.48-0.58c-0.43-0.27-0.79-0.63-1.06-1.07c-0.28-0.44-0.43-1-0.45-1.67h2.61
		C120.07,37.2,120.13,37.46,120.26,37.67"/>
	<path fill="#FFFFFF" d="M109.51,30.15v1.39h0.06c0.35-0.58,0.8-1,1.35-1.27c0.55-0.26,1.12-0.4,1.7-0.4c0.74,0,1.34,0.1,1.81,0.3
		c0.47,0.2,0.84,0.48,1.11,0.83c0.27,0.36,0.46,0.79,0.57,1.3c0.11,0.51,0.16,1.07,0.16,1.69v6.15h-2.75v-5.65
		c0-0.83-0.13-1.44-0.39-1.85c-0.26-0.41-0.72-0.61-1.37-0.61c-0.75,0-1.29,0.22-1.63,0.67c-0.34,0.44-0.5,1.18-0.5,2.2v5.24h-2.75
		v-10H109.51z"/>
	<rect x="102.42" y="30.15" fill="#FFFFFF" width="2.75" height="10"/>
	<rect x="102.42" y="26.34" fill="#FFFFFF" width="2.75" height="2.26"/>
</g>
</svg>
