<?xml version="1.0" encoding="utf-8"?>
<!-- Generator: Adobe Illustrator 23.1.1, SVG Export Plug-In . SVG Version: 6.00 Build 0)  -->
<svg version="1.2" baseProfile="tiny" id="Artwork" xmlns="http://www.w3.org/2000/svg" xmlns:xlink="http://www.w3.org/1999/xlink"
	 x="0px" y="0px" width="491.05px" height="94.19px" viewBox="0 0 491.05 94.19" xml:space="preserve">
<g>
	<path id="XMLID_60_" fill="#FFFFFF" d="M58.33,85.87H42.1v-8.66h-0.36c-4.33,6.98-11.79,10.34-19,10.34C4.57,87.56,0,77.33,0,61.94
		V23.69h17.08v35.12c0,10.22,3.01,15.27,10.94,15.27c9.26,0,13.23-5.17,13.23-17.8V23.69h17.08V85.87z"/>
	<path id="XMLID_57_" fill="#FFFFFF" d="M69.63,42.82c0.96-16,15.28-20.81,29.23-20.81c12.39,0,27.3,2.77,27.3,17.68v32.35
		c0,5.65,0.6,11.3,2.16,13.83h-17.32c-0.6-1.92-1.08-3.97-1.2-6.01c-5.41,5.65-13.35,7.7-20.93,7.7c-11.79,0-21.17-5.89-21.17-18.64
		c0-14.07,10.58-17.44,21.17-18.88c10.46-1.56,20.21-1.2,20.21-8.18c0-7.34-5.05-8.42-11.07-8.42c-6.49,0-10.7,2.64-11.31,9.38
		H69.63z M109.08,55.44c-2.89,2.53-8.9,2.65-14.19,3.61c-5.29,1.08-10.1,2.89-10.1,9.14c0,6.37,4.93,7.94,10.46,7.94
		c13.35,0,13.83-10.58,13.83-14.31V55.44z"/>
	<path id="XMLID_55_" fill="#FFFFFF" d="M139.27,0h17.08v85.87h-17.08V0z"/>
	<path id="XMLID_52_" fill="#FFFFFF" d="M194.11,43.3h-18.88V24.77h18.88V43.3z M175.23,67.35h18.88v18.52h-18.88V67.35z"/>
	<path id="XMLID_50_" fill="#FFFFFF" d="M234.91,30.57c-0.38-2.44-1.93-3.74-4.41-3.74c-3.82,0-5.08,3.87-5.08,7.06
		c0,3.11,1.22,6.85,4.96,6.85c2.77,0,4.37-1.76,4.75-4.41h5.76c-0.76,5.75-4.75,8.91-10.46,8.91c-6.55,0-10.96-4.62-10.96-11.13
		c0-6.76,4.03-11.76,11.09-11.76c5.12,0,9.83,2.69,10.21,8.23H234.91z"/>
	<path id="XMLID_48_" fill="#FFFFFF" d="M243.56,14.65h5.96v11.3h0.13c1.51-2.44,4.12-3.61,6.34-3.61c6.34,0,7.94,3.57,7.94,8.95
		v13.36h-5.96V32.38c0-3.57-1.05-5.33-3.82-5.33c-3.23,0-4.62,1.81-4.62,6.22v11.38h-5.96V14.65z"/>
	<path id="XMLID_45_" fill="#FFFFFF" d="M272.79,35.24c0.17,3.78,2.02,5.5,5.33,5.5c2.39,0,4.33-1.47,4.71-2.81h5.25
		c-1.68,5.12-5.25,7.31-10.17,7.31c-6.85,0-11.09-4.71-11.09-11.43c0-6.51,4.49-11.47,11.09-11.47c7.39,0,10.96,6.22,10.54,12.9
		H272.79z M282.5,31.46c-0.55-3.02-1.85-4.62-4.75-4.62c-3.78,0-4.87,2.94-4.96,4.62H282.5z"/>
	<path id="XMLID_43_" fill="#FFFFFF" d="M291.52,14.65h5.96v29.99h-5.96V14.65z"/>
	<path id="XMLID_41_" fill="#FFFFFF" d="M306.18,37.59c0.04,2.6,2.23,3.66,4.58,3.66c1.72,0,3.91-0.67,3.91-2.77
		c0-1.81-2.48-2.44-6.76-3.36c-3.45-0.76-6.89-1.97-6.89-5.8c0-5.54,4.79-6.97,9.45-6.97c4.75,0,9.12,1.6,9.58,6.93h-5.67
		c-0.17-2.31-1.93-2.94-4.07-2.94c-1.34,0-3.32,0.25-3.32,2.02c0,2.14,3.36,2.44,6.76,3.23c3.49,0.8,6.89,2.06,6.89,6.09
		c0,5.71-4.96,7.56-9.91,7.56c-5.04,0-9.96-1.89-10.21-7.65H306.18z"/>
	<path id="XMLID_38_" fill="#FFFFFF" d="M328.4,35.24c0.17,3.78,2.02,5.5,5.33,5.5c2.39,0,4.33-1.47,4.71-2.81h5.25
		c-1.68,5.12-5.25,7.31-10.17,7.31c-6.85,0-11.09-4.71-11.09-11.43c0-6.51,4.5-11.47,11.09-11.47c7.39,0,10.96,6.22,10.54,12.9
		H328.4z M338.1,31.46c-0.55-3.02-1.85-4.62-4.75-4.62c-3.78,0-4.87,2.94-4.96,4.62H338.1z"/>
	<path id="XMLID_35_" fill="#FFFFFF" d="M346.71,29.61c0.34-5.59,5.34-7.27,10.21-7.27c4.33,0,9.54,0.97,9.54,6.17v11.3
		c0,1.97,0.21,3.95,0.76,4.83h-6.05c-0.21-0.67-0.38-1.39-0.42-2.1c-1.89,1.97-4.66,2.69-7.31,2.69c-4.12,0-7.39-2.06-7.39-6.51
		c0-4.92,3.7-6.09,7.39-6.6c3.65-0.55,7.06-0.42,7.06-2.86c0-2.56-1.76-2.94-3.86-2.94c-2.27,0-3.74,0.92-3.95,3.28H346.71z
		 M360.49,34.02c-1.01,0.88-3.11,0.92-4.96,1.26c-1.85,0.38-3.53,1.01-3.53,3.19c0,2.23,1.72,2.77,3.66,2.77c4.66,0,4.83-3.7,4.83-5
		V34.02z"/>
	<path id="XMLID_33_" fill="#FFFFFF" d="M234.91,71.88c-0.38-2.44-1.93-3.74-4.41-3.74c-3.82,0-5.08,3.87-5.08,7.06
		c0,3.11,1.22,6.85,4.96,6.85c2.77,0,4.37-1.76,4.75-4.41h5.76c-0.76,5.75-4.75,8.91-10.46,8.91c-6.55,0-10.96-4.62-10.96-11.13
		c0-6.76,4.03-11.76,11.09-11.76c5.12,0,9.83,2.69,10.21,8.23H234.91z"/>
	<path id="XMLID_30_" fill="#FFFFFF" d="M254.23,63.65c6.85,0,11.26,4.54,11.26,11.47c0,6.89-4.41,11.43-11.26,11.43
		c-6.81,0-11.22-4.54-11.22-11.43C243.01,68.19,247.42,63.65,254.23,63.65z M254.23,82.05c4.07,0,5.29-3.49,5.29-6.93
		c0-3.49-1.22-6.97-5.29-6.97c-4.03,0-5.25,3.49-5.25,6.97C248.98,78.56,250.2,82.05,254.23,82.05z"/>
	<path id="XMLID_28_" fill="#FFFFFF" d="M268.8,55.96h5.96v29.99h-5.96V55.96z"/>
	<path id="XMLID_26_" fill="#FFFFFF" d="M279.09,55.96h5.96v29.99h-5.96V55.96z"/>
	<path id="XMLID_23_" fill="#FFFFFF" d="M294.04,76.55c0.17,3.78,2.02,5.5,5.33,5.5c2.39,0,4.33-1.47,4.71-2.81h5.25
		c-1.68,5.12-5.25,7.31-10.17,7.31c-6.85,0-11.09-4.7-11.09-11.43c0-6.51,4.49-11.47,11.09-11.47c7.39,0,10.96,6.22,10.54,12.9
		H294.04z M303.75,72.77c-0.55-3.02-1.85-4.62-4.75-4.62c-3.78,0-4.87,2.94-4.96,4.62H303.75z"/>
	<path id="XMLID_20_" fill="#FFFFFF" d="M333.57,84.57c0,3.57-1.26,9.62-11.26,9.62c-4.28,0-9.28-2.02-9.58-6.97h5.92
		c0.55,2.23,2.35,2.98,4.45,2.98c3.32,0,4.83-2.27,4.79-5.38v-2.86h-0.08c-1.3,2.27-3.91,3.36-6.51,3.36
		c-6.51,0-9.28-4.96-9.28-10.92c0-5.63,3.23-10.75,9.33-10.75c2.86,0,5.04,0.97,6.47,3.49h0.08v-2.9h5.67V84.57z M327.9,74.82
		c0-3.53-1.22-6.68-5.08-6.68c-3.36,0-4.83,2.94-4.83,6.18c0,3.11,1.18,6.51,4.83,6.51C326.22,80.83,327.9,77.93,327.9,74.82z"/>
	<path id="XMLID_17_" fill="#FFFFFF" d="M342.64,76.55c0.17,3.78,2.02,5.5,5.33,5.5c2.39,0,4.33-1.47,4.71-2.81h5.25
		c-1.68,5.12-5.25,7.31-10.17,7.31c-6.85,0-11.09-4.7-11.09-11.43c0-6.51,4.5-11.47,11.09-11.47c7.39,0,10.96,6.22,10.54,12.9
		H342.64z M352.34,72.77c-0.55-3.02-1.85-4.62-4.75-4.62c-3.78,0-4.87,2.94-4.96,4.62H352.34z"/>
	<path id="XMLID_14_" fill="#FFFFFF" d="M381.06,63.65c6.85,0,11.26,4.54,11.26,11.47c0,6.89-4.41,11.43-11.26,11.43
		c-6.81,0-11.22-4.54-11.22-11.43C369.84,68.19,374.25,63.65,381.06,63.65z M381.06,82.05c4.07,0,5.29-3.49,5.29-6.93
		c0-3.49-1.22-6.97-5.29-6.97c-4.03,0-5.25,3.49-5.25,6.97C375.81,78.56,377.03,82.05,381.06,82.05z"/>
	<path id="XMLID_12_" fill="#FFFFFF" d="M396.68,68.23h-3.57v-3.99h3.57v-1.68c0-3.82,2.39-6.59,7.27-6.59
		c1.05,0,2.14,0.13,3.15,0.17v4.45c-0.71-0.08-1.43-0.13-2.18-0.13c-1.6,0-2.27,0.67-2.27,2.48v1.3h4.12v3.99h-4.12v17.73h-5.96
		V68.23z"/>
	<path id="XMLID_9_" fill="#FFFFFF" d="M417.59,70.92c0.34-5.59,5.33-7.27,10.21-7.27c4.33,0,9.54,0.97,9.54,6.17v11.3
		c0,1.97,0.21,3.95,0.76,4.83h-6.05c-0.21-0.67-0.38-1.39-0.42-2.1c-1.89,1.97-4.66,2.69-7.31,2.69c-4.12,0-7.39-2.06-7.39-6.51
		c0-4.92,3.7-6.09,7.39-6.6c3.65-0.55,7.06-0.42,7.06-2.86c0-2.56-1.76-2.94-3.86-2.94c-2.27,0-3.74,0.92-3.95,3.28H417.59z
		 M431.37,75.33c-1.01,0.88-3.11,0.92-4.96,1.26c-1.85,0.38-3.53,1.01-3.53,3.19c0,2.23,1.72,2.77,3.66,2.77c4.66,0,4.83-3.7,4.83-5
		V75.33z"/>
	<path id="XMLID_7_" fill="#FFFFFF" d="M440.56,64.24h5.67v4.03h0.08c1.09-2.73,4.03-4.62,6.93-4.62c0.42,0,0.92,0.08,1.3,0.21v5.55
		c-0.54-0.13-1.43-0.21-2.14-0.21c-4.37,0-5.88,3.15-5.88,6.97v9.79h-5.96V64.24z"/>
	<path id="XMLID_5_" fill="#FFFFFF" d="M465.34,64.24h4.37v3.99h-4.37v10.75c0,2.02,0.5,2.52,2.52,2.52c0.63,0,1.22-0.04,1.85-0.17
		V86c-1.01,0.17-2.31,0.21-3.49,0.21c-3.66,0-6.85-0.84-6.85-5.17V68.23h-3.61v-3.99h3.61v-6.51h5.96V64.24z"/>
	<path id="XMLID_3_" fill="#FFFFFF" d="M476.6,78.9c0.04,2.6,2.23,3.66,4.58,3.66c1.72,0,3.91-0.67,3.91-2.77
		c0-1.81-2.48-2.44-6.76-3.36c-3.44-0.76-6.89-1.97-6.89-5.8c0-5.54,4.79-6.97,9.45-6.97c4.75,0,9.12,1.6,9.58,6.93h-5.67
		c-0.17-2.31-1.93-2.94-4.08-2.94c-1.34,0-3.32,0.25-3.32,2.02c0,2.14,3.36,2.44,6.76,3.23c3.49,0.8,6.89,2.06,6.89,6.09
		c0,5.71-4.96,7.56-9.91,7.56c-5.04,0-9.96-1.89-10.21-7.65H476.6z"/>
</g>
</svg>
