<?xml version="1.0" encoding="utf-8"?>
<!-- Generator: Adobe Illustrator 23.1.1, SVG Export Plug-In . SVG Version: 6.00 Build 0)  -->
<svg version="1.2" baseProfile="tiny" id="Artwork" xmlns="http://www.w3.org/2000/svg" xmlns:xlink="http://www.w3.org/1999/xlink"
	 x="0px" y="0px" width="470.53px" height="87.56px" viewBox="0 0 470.53 87.56" xml:space="preserve">
<g>
	<path id="XMLID_55_" fill="#FFFFFF" d="M58.33,85.87H42.1v-8.66h-0.36c-4.33,6.98-11.79,10.34-19,10.34C4.57,87.56,0,77.33,0,61.94
		V23.69h17.08v35.12c0,10.22,3.01,15.27,10.94,15.27c9.26,0,13.23-5.17,13.23-17.8V23.69h17.08V85.87z"/>
	<path id="XMLID_52_" fill="#FFFFFF" d="M69.63,42.82c0.96-16,15.28-20.81,29.23-20.81c12.39,0,27.3,2.77,27.3,17.68v32.35
		c0,5.65,0.6,11.3,2.16,13.83h-17.32c-0.6-1.92-1.08-3.97-1.2-6.01c-5.41,5.65-13.35,7.7-20.93,7.7c-11.79,0-21.17-5.89-21.17-18.64
		c0-14.07,10.58-17.44,21.17-18.88c10.46-1.56,20.21-1.2,20.21-8.18c0-7.34-5.05-8.42-11.07-8.42c-6.49,0-10.7,2.64-11.31,9.38
		H69.63z M109.08,55.44c-2.89,2.53-8.9,2.65-14.19,3.61c-5.29,1.08-10.1,2.89-10.1,9.14c0,6.37,4.93,7.94,10.46,7.94
		c13.35,0,13.83-10.58,13.83-14.31V55.44z"/>
	<path id="XMLID_50_" fill="#FFFFFF" d="M139.27,0h17.08v85.87h-17.08V0z"/>
	<path id="XMLID_47_" fill="#FFFFFF" d="M194.11,43.3h-18.88V24.77h18.88V43.3z M175.23,67.35h18.88v18.52h-18.88V67.35z"/>
	<g id="XMLID_2_">
		<path id="XMLID_45_" fill="#FFFFFF" d="M235.29,30.57c-0.38-2.44-1.93-3.74-4.41-3.74c-3.82,0-5.08,3.87-5.08,7.06
			c0,3.11,1.22,6.85,4.96,6.85c2.77,0,4.37-1.76,4.75-4.41h5.75c-0.76,5.75-4.75,8.91-10.46,8.91c-6.55,0-10.96-4.62-10.96-11.13
			c0-6.76,4.03-11.76,11.09-11.76c5.12,0,9.83,2.69,10.21,8.23H235.29z"/>
		<path id="XMLID_42_" fill="#FFFFFF" d="M248.9,35.24c0.17,3.78,2.02,5.5,5.34,5.5c2.39,0,4.33-1.47,4.71-2.82h5.25
			c-1.68,5.12-5.25,7.31-10.17,7.31c-6.85,0-11.09-4.7-11.09-11.43c0-6.51,4.5-11.47,11.09-11.47c7.39,0,10.96,6.22,10.54,12.9
			H248.9z M258.6,31.45c-0.55-3.02-1.85-4.62-4.75-4.62c-3.78,0-4.87,2.94-4.96,4.62H258.6z"/>
		<path id="XMLID_40_" fill="#FFFFFF" d="M267.42,22.93h5.67v3.02h0.13c1.51-2.44,4.12-3.61,6.64-3.61c6.34,0,7.94,3.57,7.94,8.95
			v13.36h-5.96V32.38c0-3.57-1.05-5.34-3.82-5.34c-3.24,0-4.62,1.81-4.62,6.22v11.38h-5.96V22.93z"/>
		<path id="XMLID_38_" fill="#FFFFFF" d="M298.96,22.93h4.37v3.99h-4.37v10.75c0,2.02,0.5,2.52,2.52,2.52
			c0.63,0,1.22-0.04,1.85-0.17v4.66c-1.01,0.17-2.31,0.21-3.49,0.21c-3.65,0-6.85-0.84-6.85-5.17V26.92h-3.61v-3.99H293v-6.51h5.96
			V22.93z"/>
		<path id="XMLID_36_" fill="#FFFFFF" d="M305.55,22.93h5.67v4.03h0.08c1.09-2.73,4.03-4.62,6.93-4.62c0.42,0,0.92,0.08,1.3,0.21
			v5.54c-0.55-0.13-1.43-0.21-2.14-0.21c-4.37,0-5.88,3.15-5.88,6.97v9.79h-5.96V22.93z"/>
		<path id="XMLID_33_" fill="#FFFFFF" d="M320.17,29.61c0.34-5.59,5.33-7.27,10.21-7.27c4.33,0,9.54,0.97,9.54,6.17v11.3
			c0,1.97,0.21,3.95,0.76,4.83h-6.05c-0.21-0.67-0.38-1.39-0.42-2.1c-1.89,1.97-4.66,2.69-7.31,2.69c-4.12,0-7.39-2.06-7.39-6.51
			c0-4.91,3.7-6.09,7.39-6.6c3.65-0.55,7.06-0.42,7.06-2.86c0-2.56-1.76-2.94-3.86-2.94c-2.27,0-3.74,0.92-3.95,3.28H320.17z
			 M333.95,34.02c-1.01,0.88-3.11,0.92-4.96,1.26c-1.85,0.38-3.53,1.01-3.53,3.19c0,2.23,1.72,2.77,3.65,2.77
			c4.66,0,4.83-3.7,4.83-5V34.02z"/>
		<path id="XMLID_31_" fill="#FFFFFF" d="M344.02,14.65h5.96v29.99h-5.96V14.65z"/>
		<path id="XMLID_29_" fill="#FFFFFF" d="M225.13,78.9c0.04,2.6,2.23,3.66,4.58,3.66c1.72,0,3.91-0.67,3.91-2.77
			c0-1.81-2.48-2.44-6.76-3.36c-3.44-0.76-6.89-1.97-6.89-5.8c0-5.54,4.79-6.97,9.45-6.97c4.75,0,9.12,1.6,9.58,6.93h-5.67
			c-0.17-2.31-1.93-2.94-4.07-2.94c-1.34,0-3.32,0.25-3.32,2.02c0,2.14,3.36,2.44,6.76,3.23c3.49,0.8,6.89,2.06,6.89,6.09
			c0,5.71-4.96,7.56-9.91,7.56c-5.04,0-9.96-1.89-10.21-7.65H225.13z"/>
		<path id="XMLID_26_" fill="#FFFFFF" d="M242.18,70.92c0.34-5.59,5.33-7.27,10.21-7.27c4.33,0,9.54,0.97,9.54,6.17v11.3
			c0,1.97,0.21,3.95,0.76,4.83h-6.05c-0.21-0.67-0.38-1.39-0.42-2.1c-1.89,1.97-4.66,2.69-7.31,2.69c-4.12,0-7.39-2.06-7.39-6.51
			c0-4.92,3.7-6.09,7.39-6.6c3.65-0.55,7.06-0.42,7.06-2.86c0-2.56-1.76-2.94-3.87-2.94c-2.27,0-3.74,0.92-3.95,3.28H242.18z
			 M255.96,75.33c-1.01,0.88-3.11,0.92-4.96,1.26c-1.85,0.38-3.53,1.01-3.53,3.19c0,2.23,1.72,2.77,3.66,2.77
			c4.66,0,4.83-3.7,4.83-5V75.33z"/>
		<path id="XMLID_23_" fill="#FFFFFF" d="M272,60.88h-5.96v-4.92H272V60.88z M266.03,64.24H272v21.72h-5.96V64.24z"/>
		<path id="XMLID_21_" fill="#FFFFFF" d="M276.07,64.24h5.67v3.02h0.13c1.51-2.44,4.12-3.61,6.64-3.61c6.34,0,7.94,3.57,7.94,8.95
			v13.36h-5.97V73.69c0-3.57-1.05-5.34-3.82-5.34c-3.23,0-4.62,1.81-4.62,6.22v11.38h-5.96V64.24z"/>
		<path id="XMLID_19_" fill="#FFFFFF" d="M307.95,64.24h4.37v3.99h-4.37v10.75c0,2.02,0.5,2.52,2.52,2.52
			c0.63,0,1.22-0.04,1.85-0.17V86c-1.01,0.17-2.31,0.21-3.49,0.21c-3.65,0-6.85-0.84-6.85-5.17V68.23h-3.61v-3.99h3.61v-6.51h5.96
			V64.24z"/>
		<path id="XMLID_17_" fill="#FFFFFF" d="M325.71,64.24h5.63v2.94h0.08c1.55-2.23,3.82-3.53,6.64-3.53c2.73,0,5.17,1.01,6.34,3.61
			c1.26-1.89,3.53-3.61,6.55-3.61c4.62,0,7.94,2.14,7.94,7.77v14.53h-5.96V73.65c0-2.9-0.25-5.29-3.66-5.29
			c-3.36,0-3.99,2.77-3.99,5.5v12.1h-5.96V73.77c0-2.52,0.17-5.42-3.61-5.42c-1.18,0-4.03,0.76-4.03,5v12.6h-5.96V64.24z"/>
		<path id="XMLID_14_" fill="#FFFFFF" d="M362.59,70.92c0.34-5.59,5.33-7.27,10.21-7.27c4.33,0,9.54,0.97,9.54,6.17v11.3
			c0,1.97,0.21,3.95,0.76,4.83h-6.05c-0.21-0.67-0.38-1.39-0.42-2.1c-1.89,1.97-4.66,2.69-7.31,2.69c-4.12,0-7.39-2.06-7.39-6.51
			c0-4.92,3.7-6.09,7.39-6.6c3.65-0.55,7.06-0.42,7.06-2.86c0-2.56-1.76-2.94-3.86-2.94c-2.27,0-3.74,0.92-3.95,3.28H362.59z
			 M376.37,75.33c-1.01,0.88-3.11,0.92-4.96,1.26c-1.85,0.38-3.53,1.01-3.53,3.19c0,2.23,1.72,2.77,3.65,2.77
			c4.66,0,4.83-3.7,4.83-5V75.33z"/>
		<path id="XMLID_12_" fill="#FFFFFF" d="M386.32,64.24h5.67v4.03h0.08c1.09-2.73,4.03-4.62,6.93-4.62c0.42,0,0.92,0.08,1.3,0.21
			v5.54c-0.55-0.13-1.43-0.21-2.14-0.21c-4.37,0-5.88,3.15-5.88,6.97v9.79h-5.96V64.24z"/>
		<path id="XMLID_10_" fill="#FFFFFF" d="M410.47,64.24h4.37v3.99h-4.37v10.75c0,2.02,0.5,2.52,2.52,2.52
			c0.63,0,1.22-0.04,1.85-0.17V86c-1.01,0.17-2.31,0.21-3.49,0.21c-3.65,0-6.85-0.84-6.85-5.17V68.23h-3.61v-3.99h3.61v-6.51h5.96
			V64.24z"/>
		<path id="XMLID_7_" fill="#FFFFFF" d="M423.36,60.88h-5.96v-4.92h5.96V60.88z M417.4,64.24h5.96v21.72h-5.96V64.24z"/>
		<path id="XMLID_5_" fill="#FFFFFF" d="M427.44,64.24h5.67v3.02h0.13c1.51-2.44,4.12-3.61,6.64-3.61c6.34,0,7.94,3.57,7.94,8.95
			v13.36h-5.96V73.69c0-3.57-1.05-5.34-3.82-5.34c-3.24,0-4.62,1.81-4.62,6.22v11.38h-5.96V64.24z"/>
		<path id="XMLID_3_" fill="#FFFFFF" d="M456.08,78.9c0.04,2.6,2.23,3.66,4.58,3.66c1.72,0,3.91-0.67,3.91-2.77
			c0-1.81-2.48-2.44-6.76-3.36c-3.44-0.76-6.89-1.97-6.89-5.8c0-5.54,4.79-6.97,9.45-6.97c4.75,0,9.12,1.6,9.58,6.93h-5.67
			c-0.17-2.31-1.93-2.94-4.08-2.94c-1.34,0-3.32,0.25-3.32,2.02c0,2.14,3.36,2.44,6.76,3.23c3.49,0.8,6.89,2.06,6.89,6.09
			c0,5.71-4.96,7.56-9.91,7.56c-5.04,0-9.96-1.89-10.21-7.65H456.08z"/>
	</g>
</g>
</svg>
