<?xml version="1.0" encoding="utf-8"?>
<!-- Generator: Adobe Illustrator 23.1.1, SVG Export Plug-In . SVG Version: 6.00 Build 0)  -->
<svg version="1.2" baseProfile="tiny" id="Artwork" xmlns="http://www.w3.org/2000/svg" xmlns:xlink="http://www.w3.org/1999/xlink"
	 x="0px" y="0px" width="567.34px" height="87.56px" viewBox="0 0 567.34 87.56" xml:space="preserve">
<g>
	<path id="XMLID_139_" fill="#FFFFFF" d="M58.33,85.87H42.1v-8.66h-0.36c-4.33,6.98-11.79,10.34-19,10.34
		C4.57,87.56,0,77.33,0,61.94V23.69h17.08v35.12c0,10.22,3.01,15.27,10.94,15.27c9.26,0,13.23-5.17,13.23-17.8V23.69h17.08V85.87z"
		/>
	<path id="XMLID_136_" fill="#FFFFFF" d="M69.63,42.82c0.96-16,15.28-20.81,29.23-20.81c12.39,0,27.3,2.77,27.3,17.68v32.35
		c0,5.65,0.6,11.3,2.16,13.83h-17.32c-0.6-1.92-1.08-3.97-1.2-6.01c-5.41,5.65-13.35,7.7-20.93,7.7c-11.79,0-21.17-5.89-21.17-18.64
		c0-14.07,10.58-17.44,21.17-18.88c10.46-1.56,20.21-1.2,20.21-8.18c0-7.34-5.05-8.42-11.07-8.42c-6.49,0-10.7,2.64-11.31,9.38
		H69.63z M109.08,55.44c-2.89,2.53-8.9,2.65-14.19,3.61c-5.29,1.08-10.1,2.89-10.1,9.14c0,6.37,4.93,7.94,10.46,7.94
		c13.35,0,13.83-10.58,13.83-14.31V55.44z"/>
	<path id="XMLID_134_" fill="#FFFFFF" d="M139.27,0h17.08v85.87h-17.08V0z"/>
	<path id="XMLID_131_" fill="#FFFFFF" d="M194.11,43.3h-18.88V24.77h18.88V43.3z M175.23,67.35h18.88v18.52h-18.88V67.35z"/>
	<g id="XMLID_1_">
		<path id="XMLID_129_" fill="#FFFFFF" d="M221.89,14.65h5.96v29.99h-5.96V14.65z"/>
		<path id="XMLID_126_" fill="#FFFFFF" d="M242.14,22.34c6.85,0,11.26,4.54,11.26,11.47c0,6.89-4.41,11.43-11.26,11.43
			c-6.81,0-11.22-4.54-11.22-11.43C230.92,26.88,235.33,22.34,242.14,22.34z M242.14,40.74c4.07,0,5.29-3.49,5.29-6.93
			c0-3.49-1.22-6.97-5.29-6.97c-4.03,0-5.25,3.49-5.25,6.97C236.89,37.25,238.1,40.74,242.14,40.74z"/>
		<path id="XMLID_124_" fill="#FFFFFF" d="M256.62,22.93h5.67v3.02h0.13c1.51-2.44,4.12-3.61,6.64-3.61c6.34,0,7.94,3.57,7.94,8.95
			v13.36h-5.97V32.38c0-3.57-1.05-5.33-3.82-5.33c-3.24,0-4.62,1.81-4.62,6.22v11.38h-5.96V22.93z"/>
		<path id="XMLID_121_" fill="#FFFFFF" d="M296.36,41.87h-0.08c-1.39,2.35-3.82,3.36-6.59,3.36c-6.55,0-9.75-5.63-9.75-11.64
			c0-5.84,3.23-11.26,9.62-11.26c2.56,0,5.08,1.09,6.43,3.23h0.08V14.65h5.96v29.99h-5.67V41.87z M291.15,26.83
			c-3.91,0-5.25,3.36-5.25,6.93c0,3.4,1.55,6.97,5.25,6.97c3.95,0,5.12-3.45,5.12-7.02C296.27,30.19,295.01,26.83,291.15,26.83z"/>
		<path id="XMLID_118_" fill="#FFFFFF" d="M316.43,22.34c6.85,0,11.26,4.54,11.26,11.47c0,6.89-4.41,11.43-11.26,11.43
			c-6.81,0-11.22-4.54-11.22-11.43C305.22,26.88,309.63,22.34,316.43,22.34z M316.43,40.74c4.07,0,5.29-3.49,5.29-6.93
			c0-3.49-1.22-6.97-5.29-6.97c-4.03,0-5.25,3.49-5.25,6.97C311.18,37.25,312.4,40.74,316.43,40.74z"/>
		<path id="XMLID_116_" fill="#FFFFFF" d="M330.92,22.93h5.67v3.02h0.13c1.51-2.44,4.12-3.61,6.64-3.61c6.34,0,7.94,3.57,7.94,8.95
			v13.36h-5.97V32.38c0-3.57-1.05-5.33-3.82-5.33c-3.24,0-4.62,1.81-4.62,6.22v11.38h-5.96V22.93z"/>
		<path id="XMLID_114_" fill="#FFFFFF" d="M379.9,30.57c-0.38-2.44-1.93-3.74-4.41-3.74c-3.82,0-5.08,3.87-5.08,7.06
			c0,3.11,1.22,6.85,4.96,6.85c2.77,0,4.37-1.76,4.75-4.41h5.75c-0.76,5.75-4.75,8.91-10.46,8.91c-6.55,0-10.96-4.62-10.96-11.13
			c0-6.76,4.03-11.76,11.09-11.76c5.12,0,9.83,2.69,10.21,8.23H379.9z"/>
		<path id="XMLID_111_" fill="#FFFFFF" d="M399.21,22.34c6.85,0,11.26,4.54,11.26,11.47c0,6.89-4.41,11.43-11.26,11.43
			c-6.8,0-11.22-4.54-11.22-11.43C388,26.88,392.41,22.34,399.21,22.34z M399.21,40.74c4.08,0,5.29-3.49,5.29-6.93
			c0-3.49-1.22-6.97-5.29-6.97c-4.03,0-5.25,3.49-5.25,6.97C393.96,37.25,395.18,40.74,399.21,40.74z"/>
		<path id="XMLID_109_" fill="#FFFFFF" d="M413.79,14.65h5.96v29.99h-5.96V14.65z"/>
		<path id="XMLID_107_" fill="#FFFFFF" d="M424.08,14.65h5.96v29.99h-5.96V14.65z"/>
		<path id="XMLID_104_" fill="#FFFFFF" d="M439.03,35.24c0.17,3.78,2.02,5.5,5.34,5.5c2.39,0,4.33-1.47,4.71-2.82h5.25
			c-1.68,5.12-5.25,7.31-10.17,7.31c-6.85,0-11.09-4.71-11.09-11.43c0-6.51,4.49-11.47,11.09-11.47c7.39,0,10.96,6.22,10.54,12.9
			H439.03z M448.73,31.45c-0.55-3.02-1.85-4.62-4.75-4.62c-3.78,0-4.87,2.94-4.96,4.62H448.73z"/>
		<path id="XMLID_101_" fill="#FFFFFF" d="M478.55,43.26c0,3.57-1.26,9.62-11.26,9.62c-4.28,0-9.28-2.02-9.58-6.97h5.92
			c0.55,2.23,2.35,2.98,4.45,2.98c3.32,0,4.83-2.27,4.79-5.38v-2.86h-0.08c-1.3,2.27-3.91,3.36-6.51,3.36
			c-6.51,0-9.28-4.96-9.28-10.92c0-5.63,3.23-10.75,9.33-10.75c2.86,0,5.04,0.97,6.47,3.49h0.08v-2.9h5.67V43.26z M472.88,33.51
			c0-3.53-1.22-6.68-5.08-6.68c-3.36,0-4.83,2.94-4.83,6.18c0,3.11,1.18,6.51,4.83,6.51C471.2,39.52,472.88,36.62,472.88,33.51z"/>
		<path id="XMLID_98_" fill="#FFFFFF" d="M487.62,35.24c0.17,3.78,2.02,5.5,5.33,5.5c2.39,0,4.33-1.47,4.71-2.82h5.25
			c-1.68,5.12-5.25,7.31-10.17,7.31c-6.85,0-11.09-4.71-11.09-11.43c0-6.51,4.5-11.47,11.09-11.47c7.39,0,10.96,6.22,10.54,12.9
			H487.62z M497.33,31.45c-0.55-3.02-1.85-4.62-4.75-4.62c-3.78,0-4.87,2.94-4.96,4.62H497.33z"/>
		<path id="XMLID_95_" fill="#FFFFFF" d="M230.67,63.65c6.85,0,11.26,4.54,11.26,11.47c0,6.89-4.41,11.43-11.26,11.43
			c-6.8,0-11.22-4.54-11.22-11.43C219.46,68.19,223.87,63.65,230.67,63.65z M230.67,82.05c4.08,0,5.29-3.49,5.29-6.93
			c0-3.49-1.22-6.97-5.29-6.97c-4.03,0-5.25,3.49-5.25,6.97C225.42,78.56,226.64,82.05,230.67,82.05z"/>
		<path id="XMLID_93_" fill="#FFFFFF" d="M246.29,68.23h-3.57v-3.99h3.57v-1.68c0-3.82,2.39-6.59,7.27-6.59
			c1.05,0,2.14,0.13,3.15,0.17v4.45c-0.71-0.08-1.43-0.13-2.18-0.13c-1.6,0-2.27,0.67-2.27,2.48v1.3h4.12v3.99h-4.12v17.73h-5.96
			V68.23z"/>
		<path id="XMLID_91_" fill="#FFFFFF" d="M282.5,71.88c-0.38-2.44-1.93-3.74-4.41-3.74c-3.82,0-5.08,3.87-5.08,7.06
			c0,3.11,1.22,6.85,4.96,6.85c2.77,0,4.37-1.76,4.75-4.41h5.75c-0.76,5.75-4.75,8.91-10.46,8.91c-6.55,0-10.96-4.62-10.96-11.13
			c0-6.76,4.03-11.76,11.09-11.76c5.12,0,9.83,2.69,10.21,8.23H282.5z"/>
		<path id="XMLID_88_" fill="#FFFFFF" d="M301.82,63.65c6.85,0,11.26,4.54,11.26,11.47c0,6.89-4.41,11.43-11.26,11.43
			c-6.8,0-11.22-4.54-11.22-11.43C290.6,68.19,295.01,63.65,301.82,63.65z M301.82,82.05c4.08,0,5.29-3.49,5.29-6.93
			c0-3.49-1.22-6.97-5.29-6.97c-4.03,0-5.25,3.49-5.25,6.97C296.57,78.56,297.79,82.05,301.82,82.05z"/>
		<path id="XMLID_86_" fill="#FFFFFF" d="M316.39,64.24h5.63v2.94h0.08c1.55-2.23,3.82-3.53,6.64-3.53c2.73,0,5.17,1.01,6.34,3.61
			c1.26-1.89,3.53-3.61,6.55-3.61c4.62,0,7.94,2.14,7.94,7.77v14.53h-5.96V73.65c0-2.9-0.25-5.29-3.65-5.29
			c-3.36,0-3.99,2.77-3.99,5.5v12.1H330V73.77c0-2.52,0.17-5.42-3.61-5.42c-1.18,0-4.03,0.76-4.03,5v12.6h-5.96V64.24z"/>
		<path id="XMLID_84_" fill="#FFFFFF" d="M353.85,64.24h5.63v2.94h0.08c1.55-2.23,3.82-3.53,6.64-3.53c2.73,0,5.17,1.01,6.34,3.61
			c1.26-1.89,3.53-3.61,6.55-3.61c4.62,0,7.94,2.14,7.94,7.77v14.53h-5.96V73.65c0-2.9-0.25-5.29-3.66-5.29
			c-3.36,0-3.99,2.77-3.99,5.5v12.1h-5.96V73.77c0-2.52,0.17-5.42-3.61-5.42c-1.18,0-4.03,0.76-4.03,5v12.6h-5.96V64.24z"/>
		<path id="XMLID_82_" fill="#FFFFFF" d="M411.52,85.96h-5.67v-3.02h-0.13c-1.51,2.44-4.12,3.61-6.64,3.61
			c-6.34,0-7.94-3.57-7.94-8.95V64.24h5.96V76.5c0,3.57,1.05,5.33,3.82,5.33c3.23,0,4.62-1.81,4.62-6.22V64.24h5.96V85.96z"/>
		<path id="XMLID_80_" fill="#FFFFFF" d="M415.51,64.24h5.67v3.02h0.13c1.51-2.44,4.12-3.61,6.64-3.61c6.34,0,7.94,3.57,7.94,8.95
			v13.36h-5.96V73.69c0-3.57-1.05-5.33-3.82-5.33c-3.24,0-4.62,1.81-4.62,6.22v11.38h-5.96V64.24z"/>
		<path id="XMLID_77_" fill="#FFFFFF" d="M446,60.88h-5.96v-4.92H446V60.88z M440.04,64.24H446v21.72h-5.96V64.24z"/>
		<path id="XMLID_75_" fill="#FFFFFF" d="M464.94,71.88c-0.38-2.44-1.93-3.74-4.41-3.74c-3.82,0-5.08,3.87-5.08,7.06
			c0,3.11,1.22,6.85,4.96,6.85c2.77,0,4.37-1.76,4.75-4.41h5.75c-0.76,5.75-4.75,8.91-10.46,8.91c-6.55,0-10.96-4.62-10.96-11.13
			c0-6.76,4.03-11.76,11.09-11.76c5.12,0,9.83,2.69,10.21,8.23H464.94z"/>
		<path id="XMLID_72_" fill="#FFFFFF" d="M473.42,70.92c0.34-5.59,5.34-7.27,10.21-7.27c4.33,0,9.54,0.97,9.54,6.17v11.3
			c0,1.97,0.21,3.95,0.76,4.83h-6.05c-0.21-0.67-0.38-1.39-0.42-2.1c-1.89,1.97-4.66,2.69-7.31,2.69c-4.12,0-7.39-2.06-7.39-6.51
			c0-4.92,3.7-6.09,7.39-6.6c3.65-0.55,7.06-0.42,7.06-2.86c0-2.56-1.77-2.94-3.87-2.94c-2.27,0-3.74,0.92-3.95,3.28H473.42z
			 M487.2,75.33c-1.01,0.88-3.11,0.92-4.96,1.26c-1.85,0.38-3.53,1.01-3.53,3.19c0,2.23,1.72,2.77,3.65,2.77c4.66,0,4.83-3.7,4.83-5
			V75.33z"/>
		<path id="XMLID_70_" fill="#FFFFFF" d="M504.88,64.24h4.37v3.99h-4.37v10.75c0,2.02,0.5,2.52,2.52,2.52
			c0.63,0,1.22-0.04,1.85-0.17V86c-1.01,0.17-2.31,0.21-3.49,0.21c-3.66,0-6.85-0.84-6.85-5.17V68.23h-3.61v-3.99h3.61v-6.51h5.96
			V64.24z"/>
		<path id="XMLID_67_" fill="#FFFFFF" d="M517.65,60.88h-5.96v-4.92h5.96V60.88z M511.69,64.24h5.96v21.72h-5.96V64.24z"/>
		<path id="XMLID_64_" fill="#FFFFFF" d="M532.39,63.65c6.85,0,11.26,4.54,11.26,11.47c0,6.89-4.41,11.43-11.26,11.43
			c-6.8,0-11.22-4.54-11.22-11.43C521.18,68.19,525.59,63.65,532.39,63.65z M532.39,82.05c4.08,0,5.29-3.49,5.29-6.93
			c0-3.49-1.22-6.97-5.29-6.97c-4.03,0-5.25,3.49-5.25,6.97C527.14,78.56,528.36,82.05,532.39,82.05z"/>
		<path id="XMLID_62_" fill="#FFFFFF" d="M546.97,64.24h5.67v3.02h0.13c1.51-2.44,4.12-3.61,6.64-3.61c6.34,0,7.94,3.57,7.94,8.95
			v13.36h-5.96V73.69c0-3.57-1.05-5.33-3.82-5.33c-3.23,0-4.62,1.81-4.62,6.22v11.38h-5.97V64.24z"/>
	</g>
</g>
</svg>
