<?xml version="1.0" encoding="utf-8"?>
<!-- Generator: Adobe Illustrator 23.1.1, SVG Export Plug-In . SVG Version: 6.00 Build 0)  -->
<svg version="1.2" baseProfile="tiny" id="Artwork" xmlns="http://www.w3.org/2000/svg" xmlns:xlink="http://www.w3.org/1999/xlink"
	 x="0px" y="0px" width="503.32px" height="87.56px" viewBox="0 0 503.32 87.56" xml:space="preserve">
<g>
	<path id="XMLID_66_" fill="#FFFFFF" d="M58.33,85.87H42.1v-8.66h-0.36c-4.33,6.98-11.79,10.34-19,10.34C4.57,87.56,0,77.33,0,61.94
		V23.69h17.08v35.12c0,10.22,3.01,15.27,10.94,15.27c9.26,0,13.23-5.17,13.23-17.8V23.69h17.08V85.87z"/>
	<path id="XMLID_63_" fill="#FFFFFF" d="M69.63,42.82c0.96-16,15.28-20.81,29.23-20.81c12.39,0,27.3,2.77,27.3,17.68v32.35
		c0,5.65,0.6,11.3,2.16,13.83h-17.32c-0.6-1.92-1.08-3.97-1.2-6.01c-5.41,5.65-13.35,7.7-20.93,7.7c-11.79,0-21.17-5.89-21.17-18.64
		c0-14.07,10.58-17.44,21.17-18.88c10.46-1.56,20.21-1.2,20.21-8.18c0-7.34-5.05-8.42-11.07-8.42c-6.49,0-10.7,2.64-11.31,9.38
		H69.63z M109.08,55.44c-2.89,2.53-8.9,2.65-14.19,3.61c-5.29,1.08-10.1,2.89-10.1,9.14c0,6.37,4.93,7.94,10.46,7.94
		c13.35,0,13.83-10.58,13.83-14.31V55.44z"/>
	<path id="XMLID_61_" fill="#FFFFFF" d="M139.27,0h17.08v85.87h-17.08V0z"/>
	<path id="XMLID_58_" fill="#FFFFFF" d="M194.11,43.3h-18.88V24.77h18.88V43.3z M175.23,67.35h18.88v18.52h-18.88V67.35z"/>
	<g id="XMLID_2_">
		<path id="XMLID_56_" fill="#FFFFFF" d="M221.89,14.65h5.96v29.99h-5.96V14.65z"/>
		<path id="XMLID_53_" fill="#FFFFFF" d="M242.14,22.34c6.85,0,11.26,4.54,11.26,11.47c0,6.89-4.41,11.43-11.26,11.43
			c-6.81,0-11.22-4.54-11.22-11.43C230.92,26.87,235.33,22.34,242.14,22.34z M242.14,40.74c4.07,0,5.29-3.49,5.29-6.93
			c0-3.49-1.22-6.97-5.29-6.97c-4.03,0-5.25,3.49-5.25,6.97C236.89,37.25,238.1,40.74,242.14,40.74z"/>
		<path id="XMLID_51_" fill="#FFFFFF" d="M256.62,22.93h5.67v3.02h0.13c1.51-2.44,4.12-3.61,6.64-3.61c6.34,0,7.94,3.57,7.94,8.95
			v13.36h-5.96V32.38c0-3.57-1.05-5.33-3.82-5.33c-3.24,0-4.62,1.81-4.62,6.22v11.38h-5.96V22.93z"/>
		<path id="XMLID_48_" fill="#FFFFFF" d="M296.36,41.87h-0.08c-1.39,2.35-3.82,3.36-6.59,3.36c-6.55,0-9.75-5.63-9.75-11.64
			c0-5.84,3.23-11.26,9.62-11.26c2.56,0,5.08,1.09,6.43,3.23h0.08V14.65h5.96v29.99h-5.67V41.87z M291.15,26.83
			c-3.91,0-5.25,3.36-5.25,6.93c0,3.4,1.55,6.97,5.25,6.97c3.95,0,5.12-3.45,5.12-7.02C296.27,30.19,295.01,26.83,291.15,26.83z"/>
		<path id="XMLID_45_" fill="#FFFFFF" d="M316.43,22.34c6.85,0,11.26,4.54,11.26,11.47c0,6.89-4.41,11.43-11.26,11.43
			c-6.81,0-11.22-4.54-11.22-11.43C305.22,26.87,309.63,22.34,316.43,22.34z M316.43,40.74c4.08,0,5.29-3.49,5.29-6.93
			c0-3.49-1.22-6.97-5.29-6.97c-4.03,0-5.25,3.49-5.25,6.97C311.18,37.25,312.4,40.74,316.43,40.74z"/>
		<path id="XMLID_43_" fill="#FFFFFF" d="M330.92,22.93h5.67v3.02h0.13c1.51-2.44,4.12-3.61,6.64-3.61c6.34,0,7.94,3.57,7.94,8.95
			v13.36h-5.96V32.38c0-3.57-1.05-5.33-3.82-5.33c-3.24,0-4.62,1.81-4.62,6.22v11.38h-5.96V22.93z"/>
		<path id="XMLID_41_" fill="#FFFFFF" d="M379.9,30.57c-0.38-2.44-1.93-3.74-4.41-3.74c-3.82,0-5.08,3.87-5.08,7.06
			c0,3.11,1.22,6.85,4.96,6.85c2.77,0,4.37-1.76,4.75-4.41h5.75c-0.76,5.75-4.75,8.91-10.46,8.91c-6.55,0-10.96-4.62-10.96-11.13
			c0-6.76,4.03-11.76,11.09-11.76c5.12,0,9.83,2.69,10.21,8.23H379.9z"/>
		<path id="XMLID_38_" fill="#FFFFFF" d="M399.21,22.34c6.85,0,11.26,4.54,11.26,11.47c0,6.89-4.41,11.43-11.26,11.43
			c-6.81,0-11.22-4.54-11.22-11.43C388,26.87,392.41,22.34,399.21,22.34z M399.21,40.74c4.08,0,5.29-3.49,5.29-6.93
			c0-3.49-1.22-6.97-5.29-6.97c-4.03,0-5.25,3.49-5.25,6.97C393.96,37.25,395.18,40.74,399.21,40.74z"/>
		<path id="XMLID_36_" fill="#FFFFFF" d="M413.79,14.65h5.96v29.99h-5.96V14.65z"/>
		<path id="XMLID_34_" fill="#FFFFFF" d="M424.08,14.65h5.96v29.99h-5.96V14.65z"/>
		<path id="XMLID_31_" fill="#FFFFFF" d="M439.03,35.23c0.17,3.78,2.02,5.5,5.34,5.5c2.39,0,4.33-1.47,4.71-2.82h5.25
			c-1.68,5.12-5.25,7.31-10.17,7.31c-6.85,0-11.09-4.71-11.09-11.43c0-6.51,4.49-11.47,11.09-11.47c7.39,0,10.96,6.22,10.54,12.9
			H439.03z M448.73,31.45c-0.55-3.02-1.85-4.62-4.75-4.62c-3.78,0-4.87,2.94-4.96,4.62H448.73z"/>
		<path id="XMLID_28_" fill="#FFFFFF" d="M478.55,43.26c0,3.57-1.26,9.62-11.26,9.62c-4.29,0-9.28-2.02-9.58-6.97h5.92
			c0.55,2.23,2.35,2.98,4.45,2.98c3.32,0,4.83-2.27,4.79-5.38v-2.86h-0.08c-1.3,2.27-3.91,3.36-6.51,3.36
			c-6.51,0-9.28-4.96-9.28-10.92c0-5.63,3.23-10.75,9.33-10.75c2.86,0,5.04,0.97,6.47,3.49h0.08v-2.9h5.67V43.26z M472.88,33.51
			c0-3.53-1.22-6.68-5.08-6.68c-3.36,0-4.83,2.94-4.83,6.18c0,3.11,1.18,6.51,4.83,6.51C471.2,39.52,472.88,36.62,472.88,33.51z"/>
		<path id="XMLID_25_" fill="#FFFFFF" d="M487.62,35.23c0.17,3.78,2.02,5.5,5.33,5.5c2.39,0,4.33-1.47,4.71-2.82h5.25
			c-1.68,5.12-5.25,7.31-10.17,7.31c-6.85,0-11.09-4.71-11.09-11.43c0-6.51,4.49-11.47,11.09-11.47c7.39,0,10.96,6.22,10.54,12.9
			H487.62z M497.33,31.45c-0.55-3.02-1.85-4.62-4.75-4.62c-3.78,0-4.87,2.94-4.96,4.62H497.33z"/>
		<path id="XMLID_22_" fill="#FFFFFF" d="M230.67,63.65c6.85,0,11.26,4.54,11.26,11.47c0,6.89-4.41,11.43-11.26,11.43
			c-6.81,0-11.22-4.54-11.22-11.43C219.46,68.18,223.87,63.65,230.67,63.65z M230.67,82.05c4.08,0,5.29-3.49,5.29-6.93
			c0-3.49-1.22-6.97-5.29-6.97c-4.03,0-5.25,3.49-5.25,6.97C225.42,78.56,226.64,82.05,230.67,82.05z"/>
		<path id="XMLID_20_" fill="#FFFFFF" d="M246.29,68.23h-3.57v-3.99h3.57v-1.68c0-3.82,2.39-6.59,7.27-6.59
			c1.05,0,2.14,0.13,3.15,0.17v4.45c-0.71-0.08-1.43-0.13-2.18-0.13c-1.6,0-2.27,0.67-2.27,2.48v1.3h4.12v3.99h-4.12v17.73h-5.96
			V68.23z"/>
		<path id="XMLID_18_" fill="#FFFFFF" d="M269.01,68.23h-3.57v-3.99h3.57v-1.68c0-3.82,2.39-6.59,7.27-6.59
			c1.05,0,2.14,0.13,3.15,0.17v4.45c-0.71-0.08-1.43-0.13-2.18-0.13c-1.6,0-2.27,0.67-2.27,2.48v1.3h4.12v3.99h-4.12v17.73h-5.96
			V68.23z"/>
		<path id="XMLID_15_" fill="#FFFFFF" d="M280.9,70.92c0.34-5.59,5.33-7.27,10.21-7.27c4.33,0,9.54,0.97,9.54,6.17v11.3
			c0,1.97,0.21,3.95,0.76,4.83h-6.05c-0.21-0.67-0.38-1.39-0.42-2.1c-1.89,1.97-4.66,2.69-7.31,2.69c-4.12,0-7.39-2.06-7.39-6.51
			c0-4.92,3.7-6.09,7.39-6.6c3.65-0.55,7.06-0.42,7.06-2.86c0-2.56-1.76-2.94-3.87-2.94c-2.27,0-3.74,0.92-3.95,3.28H280.9z
			 M294.68,75.33c-1.01,0.88-3.11,0.92-4.96,1.26c-1.85,0.38-3.53,1.01-3.53,3.19c0,2.23,1.72,2.77,3.66,2.77
			c4.66,0,4.83-3.7,4.83-5V75.33z"/>
		<path id="XMLID_13_" fill="#FFFFFF" d="M309.33,78.9c0.04,2.6,2.23,3.66,4.58,3.66c1.72,0,3.91-0.67,3.91-2.77
			c0-1.81-2.48-2.44-6.76-3.36c-3.44-0.76-6.89-1.97-6.89-5.8c0-5.54,4.79-6.97,9.45-6.97c4.75,0,9.12,1.6,9.58,6.93h-5.67
			c-0.17-2.31-1.93-2.94-4.07-2.94c-1.34,0-3.32,0.25-3.32,2.02c0,2.14,3.36,2.44,6.76,3.23c3.49,0.8,6.89,2.06,6.89,6.09
			c0,5.71-4.96,7.56-9.91,7.56c-5.04,0-9.96-1.89-10.21-7.65H309.33z"/>
		<path id="XMLID_11_" fill="#FFFFFF" d="M326.72,55.96h5.96v11.3h0.13c1.51-2.44,4.12-3.61,6.34-3.61c6.34,0,7.94,3.57,7.94,8.95
			v13.36h-5.97V73.69c0-3.57-1.05-5.33-3.82-5.33c-3.23,0-4.62,1.81-4.62,6.22v11.38h-5.96V55.96z"/>
		<path id="XMLID_8_" fill="#FFFFFF" d="M357.21,60.88h-5.96v-4.92h5.96V60.88z M351.25,64.24h5.96v21.72h-5.96V64.24z"/>
		<path id="XMLID_5_" fill="#FFFFFF" d="M371.91,63.65c6.85,0,11.26,4.54,11.26,11.47c0,6.89-4.41,11.43-11.26,11.43
			c-6.81,0-11.22-4.54-11.22-11.43C360.7,68.18,365.11,63.65,371.91,63.65z M371.91,82.05c4.07,0,5.29-3.49,5.29-6.93
			c0-3.49-1.22-6.97-5.29-6.97c-4.03,0-5.25,3.49-5.25,6.97C366.66,78.56,367.88,82.05,371.91,82.05z"/>
		<path id="XMLID_3_" fill="#FFFFFF" d="M386.49,64.24h5.67v3.02h0.13c1.51-2.44,4.12-3.61,6.64-3.61c6.34,0,7.94,3.57,7.94,8.95
			v13.36h-5.97V73.69c0-3.57-1.05-5.33-3.82-5.33c-3.23,0-4.62,1.81-4.62,6.22v11.38h-5.96V64.24z"/>
	</g>
</g>
</svg>
