<?xml version="1.0" encoding="utf-8"?>
<!-- Generator: Adobe Illustrator 23.1.1, SVG Export Plug-In . SVG Version: 6.00 Build 0)  -->
<svg version="1.2" baseProfile="tiny" xmlns="http://www.w3.org/2000/svg" xmlns:xlink="http://www.w3.org/1999/xlink" x="0px"
	 y="0px" width="283.46px" height="127.86px" viewBox="0 0 283.46 127.86" xml:space="preserve">
<g id="Artwork">
	<g>
		<path fill="#FFFFFF" d="M85.18,125.4H61.47v-12.64h-0.53c-6.32,10.19-17.21,15.1-27.75,15.1C6.67,127.86,0,112.93,0,90.45V34.6
			h24.94v51.29c0,14.93,4.39,22.31,15.98,22.31c13.52,0,19.32-7.55,19.32-26V34.6h24.94V125.4z"/>
		<path fill="#FFFFFF" d="M101.69,62.53c1.41-23.36,22.31-30.38,42.68-30.38c18.09,0,39.87,4.04,39.87,25.82v47.25
			c0,8.25,0.88,16.51,3.16,20.2h-25.29c-0.88-2.81-1.58-5.79-1.76-8.78c-7.9,8.25-19.5,11.24-30.56,11.24
			c-17.21,0-30.91-8.61-30.91-27.22c0-20.55,15.46-25.47,30.91-27.57c15.28-2.28,29.51-1.76,29.51-11.94
			c0-10.71-7.38-12.29-16.16-12.29c-9.48,0-15.63,3.86-16.51,13.7H101.69z M159.3,80.97c-4.22,3.69-13,3.86-20.73,5.27
			c-7.73,1.58-14.75,4.21-14.75,13.35c0,9.31,7.2,11.59,15.28,11.59c19.49,0,20.2-15.46,20.2-20.9V80.97z"/>
		<path fill="#FFFFFF" d="M203.38,0h24.94v125.4h-24.94V0z"/>
		<path fill="#FFFFFF" d="M283.46,63.23h-27.57V36.18h27.57V63.23z M255.89,98.36h27.57v27.05h-27.57V98.36z"/>
	</g>
</g>
<g id="Guides">
	<g>
	</g>
</g>
</svg>
